{
	"asset":{
		"generator":"Khronos glTF Blender I/O v4.1.62",
		"version":"2.0"
	},
	"extensionsUsed":[
		"KHR_materials_transmission",
		"KHR_materials_ior"
	],
	"scene":0,
	"scenes":[
		{
			"name":"Scene",
			"nodes":[
				0,
				1,
				2,
				3,
				4,
				5
			]
		}
	],
	"nodes":[
		{
			"camera":0,
			"name":"Camera",
			"scale":[
				8.616606712341309,
				8.616605758666992,
				8.616605758666992
			],
			"translation":[
				-0.002320319414138794,
				0.08067339658737183,
				42.77434158325195
			]
		},
		{
			"mesh":0,
			"name":"Tube",
			"rotation":[
				0.19553034007549286,
				-0.8478395938873291,
				-0.1612604707479477,
				0.4657585024833679
			],
			"translation":[
				-0.5219805836677551,
				-0.05086018517613411,
				-0.805682361125946
			]
		},
		{
			"mesh":1,
			"name":"Box",
			"rotation":[
				0.24740785360336304,
				0.2818905711174011,
				0.13391372561454773,
				0.9172754287719727
			],
			"scale":[
				1.011417269706726,
				1.011417031288147,
				1.011417269706726
			],
			"translation":[
				3.1717472076416016,
				-0.6344401836395264,
				-1.8574273586273193
			]
		},
		{
			"mesh":2,
			"name":"Box.large",
			"rotation":[
				0.2155105024576187,
				0.08623715490102768,
				-0.15706001222133636,
				0.9599221348762512
			],
			"translation":[
				-1.9960088729858398,
				0.09072142839431763,
				-0.8366324305534363
			]
		},
		{
			"mesh":3,
			"name":"Cone",
			"rotation":[
				0.2376643568277359,
				0.41419467329978943,
				0.2558557689189911,
				0.8405333161354065
			],
			"scale":[
				1.0445172786712646,
				1.044517159461975,
				1.0445176362991333
			],
			"translation":[
				-3.76203989982605,
				0.21489344537258148,
				0.34797030687332153
			]
		},
		{
			"mesh":4,
			"name":"Cube",
			"scale":[
				1.0225831270217896,
				1.0225831270217896,
				1.0225831270217896
			],
			"translation":[
				0.8523739576339722,
				-1.550679326057434,
				2.30633282661438
			]
		}
	],
	"cameras":[
		{
			"name":"Camera.001",
			"perspective":{
				"aspectRatio":1.7777777777777777,
				"yfov":0.23711802065372467,
				"zfar":1000,
				"znear":0.10000000149011612
			},
			"type":"perspective"
		}
	],
	"materials":[
		{
			"doubleSided":true,
			"name":"Terrazzo.001",
			"normalTexture":{
				"index":0,
				"scale":0.25999999046325684
			},
			"pbrMetallicRoughness":{
				"baseColorTexture":{
					"index":1
				},
				"metallicFactor":0,
				"roughnessFactor":0.7341389656066895
			}
		},
		{
			"doubleSided":true,
			"name":"10",
			"pbrMetallicRoughness":{
				"baseColorTexture":{
					"index":2
				},
				"metallicFactor":0,
				"metallicRoughnessTexture":{
					"index":3
				}
			}
		},
		{
			"doubleSided":true,
			"name":"beech wood",
			"normalTexture":{
				"index":4,
				"scale":0.869999885559082,
				"texCoord":1
			},
			"pbrMetallicRoughness":{
				"baseColorTexture":{
					"index":5,
					"texCoord":1
				},
				"metallicFactor":0,
				"metallicRoughnessTexture":{
					"index":6,
					"texCoord":1
				}
			}
		},
		{
			"alphaMode":"BLEND",
			"extensions":{
				"KHR_materials_transmission":{
					"transmissionFactor":0.7854984402656555
				},
				"KHR_materials_ior":{
					"ior":1.4500000476837158
				}
			},
			"name":"Glass GLTF",
			"pbrMetallicRoughness":{
				"baseColorTexture":{
					"index":7
				},
				"metallicFactor":0.43202418088912964,
				"roughnessFactor":0.031722068786621094
			}
		},
		{
			"doubleSided":true,
			"name":"Stainless Steel.001",
			"pbrMetallicRoughness":{
				"baseColorTexture":{
					"index":8
				},
				"metallicFactor":0.8851963877677917,
				"metallicRoughnessTexture":{
					"index":9
				}
			}
		}
	],
	"meshes":[
		{
			"name":"wTube",
			"primitives":[
				{
					"attributes":{
						"POSITION":0,
						"NORMAL":1,
						"TEXCOORD_0":2
					},
					"indices":3,
					"material":0
				}
			]
		},
		{
			"name":"wBox",
			"primitives":[
				{
					"attributes":{
						"POSITION":4,
						"NORMAL":5,
						"TEXCOORD_0":6
					},
					"indices":7,
					"material":1
				}
			]
		},
		{
			"name":"wBox.001",
			"primitives":[
				{
					"attributes":{
						"POSITION":8,
						"NORMAL":9,
						"TEXCOORD_0":10,
						"TEXCOORD_1":11
					},
					"indices":12,
					"material":2
				}
			]
		},
		{
			"name":"wCone",
			"primitives":[
				{
					"attributes":{
						"POSITION":13,
						"NORMAL":14,
						"TEXCOORD_0":15
					},
					"indices":16,
					"material":3
				}
			]
		},
		{
			"name":"Cube.005",
			"primitives":[
				{
					"attributes":{
						"POSITION":17,
						"NORMAL":18,
						"TEXCOORD_0":19
					},
					"indices":20,
					"material":4
				}
			]
		}
	],
	"textures":[
		{
			"sampler":0,
			"extensions": {
        			"KHR_texture_basisu": {
          			"source": 0
        			}
      			}
		},
		{
			"sampler":0,
			"extensions": {
        			"KHR_texture_basisu": {
          			"source": 1
        			}
      			}
		},
		{
			"sampler":0,
			"extensions": {
        			"KHR_texture_basisu": {
          			"source": 2
        			}
      			}
		},
		{
			"sampler":0,
			"extensions": {
        			"KHR_texture_basisu": {
          			"source": 3
        			}
      			}
		},
		{
			"sampler":0,
			"extensions": {
        			"KHR_texture_basisu": {
          			"source": 4
        			}
      			}
		},
		{
			"sampler":0,
			"extensions": {
        			"KHR_texture_basisu": {
          			"source": 5
        			}
      			}
		},
		{
			"sampler":0,
			"extensions": {
        			"KHR_texture_basisu": {
          			"source": 6
        			}
      			}
		},
		{
			"sampler":0,
			"extensions": {
        			"KHR_texture_basisu": {
          			"source": 7
        			}
      			}
		},
		{
			"sampler":0,
			"extensions": {
        			"KHR_texture_basisu": {
          			"source": 8
        			}
      			}
		},
		{
			"sampler":0,
			"extensions": {
        			"KHR_texture_basisu": {
          			"source": 9
        			}
      			}
		}
	],
	"images":[
		{
			"mimeType":"image/ktx2",
			"name":"torus_normal",
			"uri":"textures/torus_normal.ktx2"
		},
		{
			"mimeType":"image/ktx2",
			"name":"torus_color",
			"uri":"textures/torus_color.ktx2"
		},
		{
			"mimeType":"image/ktx2",
			"name":"cube_color",
			"uri":"textures/cube_color.ktx2"
		},
		{
			"mimeType":"image/ktx2",
			"name":"cube_rough",
			"uri":"textures/cube_rough.ktx2"
		},
		{
			"mimeType":"image/ktx2",
			"name":"rectangle_normal",
			"uri":"textures/rectangle_normal.ktx2"
		},
		{
			"mimeType":"image/ktx2",
			"name":"rectangle_color",
			"uri":"textures/rectangle_color.ktx2"
		},
		{
			"mimeType":"image/ktx2",
			"name":"rectangle_rough",
			"uri":"textures/rectangle_rough.ktx2"
		},
		{
			"mimeType":"image/ktx2",
			"name":"pyramid_color",
			"uri":"textures/pyramid_color.ktx2"
		},
		{
			"mimeType":"image/ktx2",
			"name":"sphere_color",
			"uri":"textures/sphere_color.ktx2"
		},
		{
			"mimeType":"image/ktx2",
			"name":"sphere_rough",
			"uri":"textures/sphere_rough.ktx2"
		}
	],
	"accessors":[
		{
			"bufferView":0,
			"componentType":5126,
			"count":938,
			"max":[
				2.203685760498047,
				0.6490001082420349,
				1.3938050270080566
			],
			"min":[
				-1.9614988565444946,
				-0.6489999890327454,
				-1.3850456476211548
			],
			"type":"VEC3"
		},
		{
			"bufferView":1,
			"componentType":5126,
			"count":938,
			"type":"VEC3"
		},
		{
			"bufferView":2,
			"componentType":5126,
			"count":938,
			"type":"VEC2"
		},
		{
			"bufferView":3,
			"componentType":5123,
			"count":4380,
			"type":"SCALAR"
		},
		{
			"bufferView":4,
			"componentType":5126,
			"count":398,
			"max":[
				1.277500033378601,
				1.277500033378601,
				1.277500033378601
			],
			"min":[
				-1.277500033378601,
				-1.277500033378601,
				-1.277500033378601
			],
			"type":"VEC3"
		},
		{
			"bufferView":5,
			"componentType":5126,
			"count":398,
			"type":"VEC3"
		},
		{
			"bufferView":6,
			"componentType":5126,
			"count":398,
			"type":"VEC2"
		},
		{
			"bufferView":7,
			"componentType":5123,
			"count":1764,
			"type":"SCALAR"
		},
		{
			"bufferView":8,
			"componentType":5126,
			"count":235,
			"max":[
				0.6940000057220459,
				3.500500202178955,
				0.7174999713897705
			],
			"min":[
				-0.6940000057220459,
				-3.500500202178955,
				-0.7174999713897705
			],
			"type":"VEC3"
		},
		{
			"bufferView":9,
			"componentType":5126,
			"count":235,
			"type":"VEC3"
		},
		{
			"bufferView":10,
			"componentType":5126,
			"count":235,
			"type":"VEC2"
		},
		{
			"bufferView":11,
			"componentType":5126,
			"count":235,
			"type":"VEC2"
		},
		{
			"bufferView":12,
			"componentType":5123,
			"count":900,
			"type":"SCALAR"
		},
		{
			"bufferView":13,
			"componentType":5126,
			"count":228,
			"max":[
				1.3190398216247559,
				1.6648101806640625,
				1.3190399408340454
			],
			"min":[
				-1.319040060043335,
				-0.5136826634407043,
				-1.3190398216247559
			],
			"type":"VEC3"
		},
		{
			"bufferView":14,
			"componentType":5126,
			"count":228,
			"type":"VEC3"
		},
		{
			"bufferView":15,
			"componentType":5126,
			"count":228,
			"type":"VEC2"
		},
		{
			"bufferView":16,
			"componentType":5123,
			"count":924,
			"type":"SCALAR"
		},
		{
			"bufferView":17,
			"componentType":5126,
			"count":1661,
			"max":[
				1.1801555156707764,
				1.1801581382751465,
				1.1801564693450928
			],
			"min":[
				-1.1801555156707764,
				-1.1801528930664062,
				-1.18015456199646
			],
			"type":"VEC3"
		},
		{
			"bufferView":18,
			"componentType":5126,
			"count":1661,
			"type":"VEC3"
		},
		{
			"bufferView":19,
			"componentType":5126,
			"count":1661,
			"type":"VEC2"
		},
		{
			"bufferView":20,
			"componentType":5123,
			"count":9216,
			"type":"SCALAR"
		}
	],
	"bufferViews":[
		{
			"buffer":0,
			"byteLength":11256,
			"byteOffset":0,
			"target":34962
		},
		{
			"buffer":0,
			"byteLength":11256,
			"byteOffset":11256,
			"target":34962
		},
		{
			"buffer":0,
			"byteLength":7504,
			"byteOffset":22512,
			"target":34962
		},
		{
			"buffer":0,
			"byteLength":8760,
			"byteOffset":30016,
			"target":34963
		},
		{
			"buffer":0,
			"byteLength":4776,
			"byteOffset":38776,
			"target":34962
		},
		{
			"buffer":0,
			"byteLength":4776,
			"byteOffset":43552,
			"target":34962
		},
		{
			"buffer":0,
			"byteLength":3184,
			"byteOffset":48328,
			"target":34962
		},
		{
			"buffer":0,
			"byteLength":3528,
			"byteOffset":51512,
			"target":34963
		},
		{
			"buffer":0,
			"byteLength":2820,
			"byteOffset":55040,
			"target":34962
		},
		{
			"buffer":0,
			"byteLength":2820,
			"byteOffset":57860,
			"target":34962
		},
		{
			"buffer":0,
			"byteLength":1880,
			"byteOffset":60680,
			"target":34962
		},
		{
			"buffer":0,
			"byteLength":1880,
			"byteOffset":62560,
			"target":34962
		},
		{
			"buffer":0,
			"byteLength":1800,
			"byteOffset":64440,
			"target":34963
		},
		{
			"buffer":0,
			"byteLength":2736,
			"byteOffset":66240,
			"target":34962
		},
		{
			"buffer":0,
			"byteLength":2736,
			"byteOffset":68976,
			"target":34962
		},
		{
			"buffer":0,
			"byteLength":1824,
			"byteOffset":71712,
			"target":34962
		},
		{
			"buffer":0,
			"byteLength":1848,
			"byteOffset":73536,
			"target":34963
		},
		{
			"buffer":0,
			"byteLength":19932,
			"byteOffset":75384,
			"target":34962
		},
		{
			"buffer":0,
			"byteLength":19932,
			"byteOffset":95316,
			"target":34962
		},
		{
			"buffer":0,
			"byteLength":13288,
			"byteOffset":115248,
			"target":34962
		},
		{
			"buffer":0,
			"byteLength":18432,
			"byteOffset":128536,
			"target":34963
		}
	],
	"samplers":[
		{
			"magFilter":9729,
			"minFilter":9987
		}
	],
	"buffers":[
		{
			"byteLength":146968,
			"uri":"untitled.bin"
		}
	]
}
