<svg
    class="favicon"
    width="100"
    height="100"
    viewBox="0 0 100 100"
    fill="none"
    xmlns="http://www.w3.org/2000/svg"
>
  <style>
    path {
      fill: #4a5468;
    }
    @media (prefers-color-scheme: dark) {
      path {
        fill: #fff;
      }
    }
  </style>
  <path
      fill-rule="evenodd" clip-rule="evenodd" d="M81.7615 19.7709C81.7615 19.7709 78.333 18.2713 76.4603 22.875C75.3239 25.6772 75.1478 28.8639 75.2662 31.8504C75.3687 34.4588 76.121 36.9497 76.3931 39.5327C76.63 41.7885 76.313 44.2794 74.7156 45.887C73.697 46.8538 72.398 47.4784 71.0023 47.6726C68.5725 48.0888 66.066 47.5741 63.7676 46.6972C60.5034 45.4446 57.5664 43.4767 55.1755 40.9402C52.637 38.2396 50.8123 34.9894 49.1989 31.6884C47.5503 28.3206 45.9689 24.9243 44.5604 21.4548C43.3727 18.5223 42.342 15.1705 39.6209 13.2356C38.8239 12.6669 37.8155 12.257 36.8647 12.5017C35.914 12.7463 35.2481 13.5724 34.96 14.4842C34.7199 15.4101 34.6807 16.3761 34.8448 17.3182C35.3409 21.2165 36.9223 24.883 38.3085 28.5653C39.5089 31.7646 40.5717 35.0117 41.7241 38.2301C42.31 39.8631 42.915 41.4867 43.5744 43.0911C44.2147 44.6384 45.4567 46.1602 45.6808 47.8378C45.7384 48.2857 43.7121 47.501 43.6 47.4374C42.963 47.0575 42.375 46.602 41.849 46.0808C40.6592 44.9775 39.5678 43.7742 38.587 42.4843C36.5638 39.8536 34.9408 36.9434 33.4458 33.9918C32.0437 31.2182 30.7408 28.3937 29.4796 25.5533C28.1479 22.5573 27.1427 18.0108 23.8359 16.4921C22.6802 15.9616 21.118 16.0982 20.3626 17.1276C20.0001 17.6886 19.8028 18.3389 19.7928 19.0053C19.3638 24.3301 21.8319 30.1252 23.8967 34.9386C26.0639 39.968 28.6793 44.7877 31.173 49.6614C32.0181 51.3104 32.8504 52.9657 33.6443 54.64C33.9799 55.2248 34.2168 55.8601 34.3454 56.5209C34.3966 56.9339 34.323 57.4232 33.9676 57.6488C33.7277 57.7731 33.4521 57.8123 33.1865 57.76C30.76 57.4772 29.454 54.9958 28.2599 53.1753C25.588 49.1023 22.7891 45.1139 19.8632 41.2103C18.3842 39.2341 16.8743 37.2833 15.3335 35.358C14.4468 34.2492 11.7097 29.3214 9.76021 30.5287C9.33765 30.7861 9.2 31.323 9.13918 31.7996C9.00507 33.1632 9.09153 34.5393 9.39528 35.8759C10.8454 43.0181 15.6152 48.9625 19.7671 54.9704C22.4305 58.8211 24.8891 62.8053 27.338 66.7894C27.5525 67.1389 27.7765 67.5455 27.6581 67.9363C27.2579 69.1532 23.5222 66.2429 23.0388 65.8934C15.3751 60.3843 11.7642 51.1865 6.2261 52.2635C2.63756 52.9657 9.54573 61.7028 10.3204 62.7354C13.5472 66.9451 16.9533 71.393 21.0892 74.7672C28.7775 80.9815 37.8805 85.2353 47.6047 87.158C53.0861 88.2588 58.6961 88.5892 64.2701 88.1397C69.3921 87.714 74.7477 86.5893 79.3158 84.1461C87.8245 79.5901 92.0789 69.5535 91.9989 60.2794C91.9379 56.4149 91.2815 52.5823 90.0526 48.9148C89.4541 47.1 88.7453 45.3228 87.9302 43.5931C87.5172 42.7194 87.037 41.8743 86.6273 41.0006C86.3712 40.4478 85.446 39.2055 85.446 38.6368C85.446 38.6368 83.4005 33.8711 82.8851 30.1475C82.3697 26.4239 84.5305 22.103 81.7615 19.7709Z"
      fill="#fff"
  />
</svg>
